<mxfile host="app.diagrams.net" agent="Mozilla/5.0 (Windows NT 10.0; Win64; x64) AppleWebKit/537.36 (KHTML, like Gecko) Chrome/127.0.0.0 Safari/537.36" version="24.7.6" pages="2">
  <diagram name="Halaman-1" id="6Wa73_7NijkpgyKoH-4O">
    <mxGraphModel dx="880" dy="2806" grid="1" gridSize="10" guides="1" tooltips="1" connect="1" arrows="1" fold="1" page="1" pageScale="1" pageWidth="827" pageHeight="1169" math="0" shadow="0">
      <root>
        <mxCell id="0" />
        <mxCell id="1" parent="0" />
        <mxCell id="3LUeXYv4PFibwEN7jM8j-3" value="Use Case" style="rounded=0;whiteSpace=wrap;html=1;verticalAlign=top;" vertex="1" parent="1">
          <mxGeometry x="340" y="-2280" width="200" height="340" as="geometry" />
        </mxCell>
        <mxCell id="3LUeXYv4PFibwEN7jM8j-6" value="Daftar" style="ellipse;whiteSpace=wrap;html=1;" vertex="1" parent="1">
          <mxGeometry x="380" y="-2232" width="120" height="40" as="geometry" />
        </mxCell>
        <mxCell id="3LUeXYv4PFibwEN7jM8j-7" value="Login" style="ellipse;whiteSpace=wrap;html=1;" vertex="1" parent="1">
          <mxGeometry x="380" y="-2176" width="120" height="40" as="geometry" />
        </mxCell>
        <mxCell id="3LUeXYv4PFibwEN7jM8j-12" value="Booking" style="ellipse;whiteSpace=wrap;html=1;" vertex="1" parent="1">
          <mxGeometry x="380" y="-2117" width="120" height="40" as="geometry" />
        </mxCell>
        <mxCell id="3LUeXYv4PFibwEN7jM8j-15" value="Daftar" style="ellipse;whiteSpace=wrap;html=1;" vertex="1" parent="1">
          <mxGeometry x="1080" y="-1660" width="120" height="40" as="geometry" />
        </mxCell>
        <mxCell id="3LUeXYv4PFibwEN7jM8j-17" value="Bayar" style="ellipse;whiteSpace=wrap;html=1;" vertex="1" parent="1">
          <mxGeometry x="380" y="-2058" width="120" height="40" as="geometry" />
        </mxCell>
        <mxCell id="3LUeXYv4PFibwEN7jM8j-23" style="edgeStyle=orthogonalEdgeStyle;rounded=0;orthogonalLoop=1;jettySize=auto;html=1;exitX=0.5;exitY=1;exitDx=0;exitDy=0;" edge="1" parent="1" source="3LUeXYv4PFibwEN7jM8j-3" target="3LUeXYv4PFibwEN7jM8j-3">
          <mxGeometry relative="1" as="geometry" />
        </mxCell>
        <mxCell id="3LUeXYv4PFibwEN7jM8j-24" value="Peminjam" style="shape=umlActor;verticalLabelPosition=bottom;verticalAlign=top;html=1;outlineConnect=0;" vertex="1" parent="1">
          <mxGeometry x="170" y="-2179" width="80" height="140" as="geometry" />
        </mxCell>
        <mxCell id="3LUeXYv4PFibwEN7jM8j-25" value="Admin" style="shape=umlActor;verticalLabelPosition=bottom;verticalAlign=top;html=1;outlineConnect=0;" vertex="1" parent="1">
          <mxGeometry x="630" y="-2180" width="80" height="140" as="geometry" />
        </mxCell>
        <mxCell id="3LUeXYv4PFibwEN7jM8j-35" value="" style="endArrow=none;html=1;rounded=0;" edge="1" parent="1" target="3LUeXYv4PFibwEN7jM8j-6">
          <mxGeometry width="50" height="50" relative="1" as="geometry">
            <mxPoint x="260" y="-2160" as="sourcePoint" />
            <mxPoint x="380" y="-2250" as="targetPoint" />
          </mxGeometry>
        </mxCell>
        <mxCell id="3LUeXYv4PFibwEN7jM8j-37" value="Rekapan Data" style="ellipse;whiteSpace=wrap;html=1;" vertex="1" parent="1">
          <mxGeometry x="380" y="-2000" width="120" height="40" as="geometry" />
        </mxCell>
        <mxCell id="3LUeXYv4PFibwEN7jM8j-40" value="" style="endArrow=none;html=1;rounded=0;entryX=0;entryY=0.5;entryDx=0;entryDy=0;" edge="1" parent="1" target="3LUeXYv4PFibwEN7jM8j-7">
          <mxGeometry width="50" height="50" relative="1" as="geometry">
            <mxPoint x="260" y="-2130" as="sourcePoint" />
            <mxPoint x="440" y="-2140" as="targetPoint" />
          </mxGeometry>
        </mxCell>
        <mxCell id="3LUeXYv4PFibwEN7jM8j-45" value="" style="endArrow=none;html=1;rounded=0;entryX=0;entryY=0.5;entryDx=0;entryDy=0;" edge="1" parent="1" target="3LUeXYv4PFibwEN7jM8j-12">
          <mxGeometry width="50" height="50" relative="1" as="geometry">
            <mxPoint x="260" y="-2110" as="sourcePoint" />
            <mxPoint x="440" y="-2140" as="targetPoint" />
          </mxGeometry>
        </mxCell>
        <mxCell id="3LUeXYv4PFibwEN7jM8j-47" value="" style="endArrow=none;html=1;rounded=0;entryX=0;entryY=0.5;entryDx=0;entryDy=0;" edge="1" parent="1" target="3LUeXYv4PFibwEN7jM8j-17">
          <mxGeometry width="50" height="50" relative="1" as="geometry">
            <mxPoint x="260" y="-2090" as="sourcePoint" />
            <mxPoint x="440" y="-2140" as="targetPoint" />
          </mxGeometry>
        </mxCell>
        <mxCell id="3LUeXYv4PFibwEN7jM8j-48" value="" style="endArrow=none;html=1;rounded=0;entryX=0;entryY=0.5;entryDx=0;entryDy=0;" edge="1" parent="1" source="3LUeXYv4PFibwEN7jM8j-24" target="3LUeXYv4PFibwEN7jM8j-37">
          <mxGeometry width="50" height="50" relative="1" as="geometry">
            <mxPoint x="390" y="-2090" as="sourcePoint" />
            <mxPoint x="440" y="-2140" as="targetPoint" />
          </mxGeometry>
        </mxCell>
        <mxCell id="3LUeXYv4PFibwEN7jM8j-49" value="" style="endArrow=none;html=1;rounded=0;" edge="1" parent="1" source="3LUeXYv4PFibwEN7jM8j-6">
          <mxGeometry width="50" height="50" relative="1" as="geometry">
            <mxPoint x="390" y="-2090" as="sourcePoint" />
            <mxPoint x="620" y="-2160" as="targetPoint" />
          </mxGeometry>
        </mxCell>
        <mxCell id="3LUeXYv4PFibwEN7jM8j-50" value="" style="endArrow=none;html=1;rounded=0;entryX=1;entryY=0.5;entryDx=0;entryDy=0;" edge="1" parent="1" target="3LUeXYv4PFibwEN7jM8j-7">
          <mxGeometry width="50" height="50" relative="1" as="geometry">
            <mxPoint x="620" y="-2130" as="sourcePoint" />
            <mxPoint x="440" y="-2140" as="targetPoint" />
          </mxGeometry>
        </mxCell>
        <mxCell id="3LUeXYv4PFibwEN7jM8j-51" value="" style="endArrow=none;html=1;rounded=0;exitX=1;exitY=0.5;exitDx=0;exitDy=0;" edge="1" parent="1" source="3LUeXYv4PFibwEN7jM8j-12">
          <mxGeometry width="50" height="50" relative="1" as="geometry">
            <mxPoint x="390" y="-2090" as="sourcePoint" />
            <mxPoint x="620" y="-2110" as="targetPoint" />
          </mxGeometry>
        </mxCell>
        <mxCell id="3LUeXYv4PFibwEN7jM8j-58" value="" style="endArrow=none;html=1;rounded=0;exitX=1;exitY=0.5;exitDx=0;exitDy=0;" edge="1" parent="1" source="3LUeXYv4PFibwEN7jM8j-17">
          <mxGeometry width="50" height="50" relative="1" as="geometry">
            <mxPoint x="390" y="-2090" as="sourcePoint" />
            <mxPoint x="620" y="-2090" as="targetPoint" />
          </mxGeometry>
        </mxCell>
        <mxCell id="3LUeXYv4PFibwEN7jM8j-59" value="" style="endArrow=none;html=1;rounded=0;exitX=1;exitY=0.5;exitDx=0;exitDy=0;" edge="1" parent="1" source="3LUeXYv4PFibwEN7jM8j-37">
          <mxGeometry width="50" height="50" relative="1" as="geometry">
            <mxPoint x="390" y="-2090" as="sourcePoint" />
            <mxPoint x="620" y="-2060" as="targetPoint" />
          </mxGeometry>
        </mxCell>
      </root>
    </mxGraphModel>
  </diagram>
  <diagram id="bdp3tOz2AHJwEBBd-HJJ" name="Halaman-2">
    <mxGraphModel dx="880" dy="5144" grid="1" gridSize="10" guides="1" tooltips="1" connect="1" arrows="1" fold="1" page="1" pageScale="1" pageWidth="827" pageHeight="1169" math="0" shadow="0">
      <root>
        <mxCell id="0" />
        <mxCell id="1" parent="0" />
        <mxCell id="i8CUbSy8FzLyyfD0Hjm2-9" value="Penyewaan" style="swimlane;fontStyle=0;childLayout=stackLayout;horizontal=1;startSize=30;horizontalStack=0;resizeParent=1;resizeParentMax=0;resizeLast=0;collapsible=1;marginBottom=0;whiteSpace=wrap;html=1;" vertex="1" parent="1">
          <mxGeometry x="264" y="-4130" width="150" height="180" as="geometry" />
        </mxCell>
        <mxCell id="i8CUbSy8FzLyyfD0Hjm2-10" value="+id_cust" style="text;strokeColor=none;fillColor=none;align=left;verticalAlign=middle;spacingLeft=4;spacingRight=4;overflow=hidden;points=[[0,0.5],[1,0.5]];portConstraint=eastwest;rotatable=0;whiteSpace=wrap;html=1;" vertex="1" parent="i8CUbSy8FzLyyfD0Hjm2-9">
          <mxGeometry y="30" width="150" height="30" as="geometry" />
        </mxCell>
        <mxCell id="i8CUbSy8FzLyyfD0Hjm2-11" value="+tgl_sewa" style="text;strokeColor=none;fillColor=none;align=left;verticalAlign=middle;spacingLeft=4;spacingRight=4;overflow=hidden;points=[[0,0.5],[1,0.5]];portConstraint=eastwest;rotatable=0;whiteSpace=wrap;html=1;" vertex="1" parent="i8CUbSy8FzLyyfD0Hjm2-9">
          <mxGeometry y="60" width="150" height="30" as="geometry" />
        </mxCell>
        <mxCell id="i8CUbSy8FzLyyfD0Hjm2-12" value="+lama_pinjam" style="text;strokeColor=none;fillColor=none;align=left;verticalAlign=middle;spacingLeft=4;spacingRight=4;overflow=hidden;points=[[0,0.5],[1,0.5]];portConstraint=eastwest;rotatable=0;whiteSpace=wrap;html=1;" vertex="1" parent="i8CUbSy8FzLyyfD0Hjm2-9">
          <mxGeometry y="90" width="150" height="30" as="geometry" />
        </mxCell>
        <mxCell id="i8CUbSy8FzLyyfD0Hjm2-13" value="+biaya_sewa" style="text;strokeColor=none;fillColor=none;align=left;verticalAlign=middle;spacingLeft=4;spacingRight=4;overflow=hidden;points=[[0,0.5],[1,0.5]];portConstraint=eastwest;rotatable=0;whiteSpace=wrap;html=1;" vertex="1" parent="i8CUbSy8FzLyyfD0Hjm2-9">
          <mxGeometry y="120" width="150" height="30" as="geometry" />
        </mxCell>
        <mxCell id="i8CUbSy8FzLyyfD0Hjm2-14" value="Purbachase Parking Pass" style="text;strokeColor=none;fillColor=none;align=left;verticalAlign=middle;spacingLeft=4;spacingRight=4;overflow=hidden;points=[[0,0.5],[1,0.5]];portConstraint=eastwest;rotatable=0;whiteSpace=wrap;html=1;" vertex="1" parent="i8CUbSy8FzLyyfD0Hjm2-9">
          <mxGeometry y="150" width="150" height="30" as="geometry" />
        </mxCell>
        <mxCell id="i8CUbSy8FzLyyfD0Hjm2-15" value="" style="endArrow=none;html=1;rounded=0;exitX=-0.013;exitY=0.033;exitDx=0;exitDy=0;exitPerimeter=0;entryX=0.98;entryY=1.067;entryDx=0;entryDy=0;entryPerimeter=0;" edge="1" parent="i8CUbSy8FzLyyfD0Hjm2-9">
          <mxGeometry width="50" height="50" relative="1" as="geometry">
            <mxPoint x="1.0499999999999545" y="150.99" as="sourcePoint" />
            <mxPoint x="150" y="152.01" as="targetPoint" />
          </mxGeometry>
        </mxCell>
        <mxCell id="1UE9MxpvlfbYN3OQRSSH-1" value="Pengembalian" style="swimlane;fontStyle=0;childLayout=stackLayout;horizontal=1;startSize=30;horizontalStack=0;resizeParent=1;resizeParentMax=0;resizeLast=0;collapsible=1;marginBottom=0;whiteSpace=wrap;html=1;" vertex="1" parent="1">
          <mxGeometry x="270" y="-3930" width="150" height="240" as="geometry" />
        </mxCell>
        <mxCell id="1UE9MxpvlfbYN3OQRSSH-2" value="+no_cust" style="text;strokeColor=none;fillColor=none;align=left;verticalAlign=middle;spacingLeft=4;spacingRight=4;overflow=hidden;points=[[0,0.5],[1,0.5]];portConstraint=eastwest;rotatable=0;whiteSpace=wrap;html=1;" vertex="1" parent="1UE9MxpvlfbYN3OQRSSH-1">
          <mxGeometry y="30" width="150" height="40" as="geometry" />
        </mxCell>
        <mxCell id="1UE9MxpvlfbYN3OQRSSH-3" value="+id_pengembalian" style="text;strokeColor=none;fillColor=none;align=left;verticalAlign=middle;spacingLeft=4;spacingRight=4;overflow=hidden;points=[[0,0.5],[1,0.5]];portConstraint=eastwest;rotatable=0;whiteSpace=wrap;html=1;" vertex="1" parent="1UE9MxpvlfbYN3OQRSSH-1">
          <mxGeometry y="70" width="150" height="30" as="geometry" />
        </mxCell>
        <mxCell id="1UE9MxpvlfbYN3OQRSSH-4" value="+biaya_sewa" style="text;strokeColor=none;fillColor=none;align=left;verticalAlign=middle;spacingLeft=4;spacingRight=4;overflow=hidden;points=[[0,0.5],[1,0.5]];portConstraint=eastwest;rotatable=0;whiteSpace=wrap;html=1;" vertex="1" parent="1UE9MxpvlfbYN3OQRSSH-1">
          <mxGeometry y="100" width="150" height="30" as="geometry" />
        </mxCell>
        <mxCell id="1UE9MxpvlfbYN3OQRSSH-5" value="+total_biaya" style="text;strokeColor=none;fillColor=none;align=left;verticalAlign=middle;spacingLeft=4;spacingRight=4;overflow=hidden;points=[[0,0.5],[1,0.5]];portConstraint=eastwest;rotatable=0;whiteSpace=wrap;html=1;" vertex="1" parent="1UE9MxpvlfbYN3OQRSSH-1">
          <mxGeometry y="130" width="150" height="30" as="geometry" />
        </mxCell>
        <mxCell id="1UE9MxpvlfbYN3OQRSSH-7" value="" style="endArrow=none;html=1;rounded=0;exitX=-0.013;exitY=0.033;exitDx=0;exitDy=0;exitPerimeter=0;entryX=0.98;entryY=1.067;entryDx=0;entryDy=0;entryPerimeter=0;" edge="1" parent="1UE9MxpvlfbYN3OQRSSH-1">
          <mxGeometry width="50" height="50" relative="1" as="geometry">
            <mxPoint x="1.0499999999999545" y="158.99" as="sourcePoint" />
            <mxPoint x="150" y="160.01" as="targetPoint" />
          </mxGeometry>
        </mxCell>
        <mxCell id="1UE9MxpvlfbYN3OQRSSH-6" value="+cek_penyewaan()" style="text;strokeColor=none;fillColor=none;align=left;verticalAlign=middle;spacingLeft=4;spacingRight=4;overflow=hidden;points=[[0,0.5],[1,0.5]];portConstraint=eastwest;rotatable=0;whiteSpace=wrap;html=1;" vertex="1" parent="1UE9MxpvlfbYN3OQRSSH-1">
          <mxGeometry y="160" width="150" height="40" as="geometry" />
        </mxCell>
        <mxCell id="1UE9MxpvlfbYN3OQRSSH-8" value="+simpan_transaksi()" style="text;strokeColor=none;fillColor=none;align=left;verticalAlign=middle;spacingLeft=4;spacingRight=4;overflow=hidden;points=[[0,0.5],[1,0.5]];portConstraint=eastwest;rotatable=0;whiteSpace=wrap;html=1;" vertex="1" parent="1UE9MxpvlfbYN3OQRSSH-1">
          <mxGeometry y="200" width="150" height="40" as="geometry" />
        </mxCell>
        <mxCell id="1UE9MxpvlfbYN3OQRSSH-9" value="Custumer" style="swimlane;fontStyle=0;childLayout=stackLayout;horizontal=1;startSize=30;horizontalStack=0;resizeParent=1;resizeParentMax=0;resizeLast=0;collapsible=1;marginBottom=0;whiteSpace=wrap;html=1;" vertex="1" parent="1">
          <mxGeometry x="20" y="-4060" width="150" height="240" as="geometry" />
        </mxCell>
        <mxCell id="1UE9MxpvlfbYN3OQRSSH-10" value="+id_cust" style="text;strokeColor=none;fillColor=none;align=left;verticalAlign=middle;spacingLeft=4;spacingRight=4;overflow=hidden;points=[[0,0.5],[1,0.5]];portConstraint=eastwest;rotatable=0;whiteSpace=wrap;html=1;" vertex="1" parent="1UE9MxpvlfbYN3OQRSSH-9">
          <mxGeometry y="30" width="150" height="40" as="geometry" />
        </mxCell>
        <mxCell id="1UE9MxpvlfbYN3OQRSSH-11" value="+nama_cust" style="text;strokeColor=none;fillColor=none;align=left;verticalAlign=middle;spacingLeft=4;spacingRight=4;overflow=hidden;points=[[0,0.5],[1,0.5]];portConstraint=eastwest;rotatable=0;whiteSpace=wrap;html=1;" vertex="1" parent="1UE9MxpvlfbYN3OQRSSH-9">
          <mxGeometry y="70" width="150" height="30" as="geometry" />
        </mxCell>
        <mxCell id="1UE9MxpvlfbYN3OQRSSH-12" value="+email_cust" style="text;strokeColor=none;fillColor=none;align=left;verticalAlign=middle;spacingLeft=4;spacingRight=4;overflow=hidden;points=[[0,0.5],[1,0.5]];portConstraint=eastwest;rotatable=0;whiteSpace=wrap;html=1;" vertex="1" parent="1UE9MxpvlfbYN3OQRSSH-9">
          <mxGeometry y="100" width="150" height="30" as="geometry" />
        </mxCell>
        <mxCell id="1UE9MxpvlfbYN3OQRSSH-13" value="+telepon_cust" style="text;strokeColor=none;fillColor=none;align=left;verticalAlign=middle;spacingLeft=4;spacingRight=4;overflow=hidden;points=[[0,0.5],[1,0.5]];portConstraint=eastwest;rotatable=0;whiteSpace=wrap;html=1;" vertex="1" parent="1UE9MxpvlfbYN3OQRSSH-9">
          <mxGeometry y="130" width="150" height="30" as="geometry" />
        </mxCell>
        <mxCell id="1UE9MxpvlfbYN3OQRSSH-14" value="" style="endArrow=none;html=1;rounded=0;exitX=-0.013;exitY=0.033;exitDx=0;exitDy=0;exitPerimeter=0;entryX=0.98;entryY=1.067;entryDx=0;entryDy=0;entryPerimeter=0;" edge="1" parent="1UE9MxpvlfbYN3OQRSSH-9">
          <mxGeometry width="50" height="50" relative="1" as="geometry">
            <mxPoint x="1.0499999999999545" y="158.99" as="sourcePoint" />
            <mxPoint x="150" y="160.01" as="targetPoint" />
          </mxGeometry>
        </mxCell>
        <mxCell id="1UE9MxpvlfbYN3OQRSSH-15" value="Is Eligible To Enroll" style="text;strokeColor=none;fillColor=none;align=left;verticalAlign=middle;spacingLeft=4;spacingRight=4;overflow=hidden;points=[[0,0.5],[1,0.5]];portConstraint=eastwest;rotatable=0;whiteSpace=wrap;html=1;" vertex="1" parent="1UE9MxpvlfbYN3OQRSSH-9">
          <mxGeometry y="160" width="150" height="40" as="geometry" />
        </mxCell>
        <mxCell id="1UE9MxpvlfbYN3OQRSSH-16" value="Get Seminars Taken" style="text;strokeColor=none;fillColor=none;align=left;verticalAlign=middle;spacingLeft=4;spacingRight=4;overflow=hidden;points=[[0,0.5],[1,0.5]];portConstraint=eastwest;rotatable=0;whiteSpace=wrap;html=1;" vertex="1" parent="1UE9MxpvlfbYN3OQRSSH-9">
          <mxGeometry y="200" width="150" height="40" as="geometry" />
        </mxCell>
        <mxCell id="1UE9MxpvlfbYN3OQRSSH-17" value="aula" style="swimlane;fontStyle=0;childLayout=stackLayout;horizontal=1;startSize=30;horizontalStack=0;resizeParent=1;resizeParentMax=0;resizeLast=0;collapsible=1;marginBottom=0;whiteSpace=wrap;html=1;" vertex="1" parent="1">
          <mxGeometry x="560" y="-4140" width="150" height="160" as="geometry" />
        </mxCell>
        <mxCell id="1UE9MxpvlfbYN3OQRSSH-18" value="+harga_sewa" style="text;strokeColor=none;fillColor=none;align=left;verticalAlign=middle;spacingLeft=4;spacingRight=4;overflow=hidden;points=[[0,0.5],[1,0.5]];portConstraint=eastwest;rotatable=0;whiteSpace=wrap;html=1;" vertex="1" parent="1UE9MxpvlfbYN3OQRSSH-17">
          <mxGeometry y="30" width="150" height="40" as="geometry" />
        </mxCell>
        <mxCell id="1UE9MxpvlfbYN3OQRSSH-19" value="+edit()" style="text;strokeColor=none;fillColor=none;align=left;verticalAlign=middle;spacingLeft=4;spacingRight=4;overflow=hidden;points=[[0,0.5],[1,0.5]];portConstraint=eastwest;rotatable=0;whiteSpace=wrap;html=1;" vertex="1" parent="1UE9MxpvlfbYN3OQRSSH-17">
          <mxGeometry y="70" width="150" height="30" as="geometry" />
        </mxCell>
        <mxCell id="1UE9MxpvlfbYN3OQRSSH-20" value="+simpan()" style="text;strokeColor=none;fillColor=none;align=left;verticalAlign=middle;spacingLeft=4;spacingRight=4;overflow=hidden;points=[[0,0.5],[1,0.5]];portConstraint=eastwest;rotatable=0;whiteSpace=wrap;html=1;" vertex="1" parent="1UE9MxpvlfbYN3OQRSSH-17">
          <mxGeometry y="100" width="150" height="30" as="geometry" />
        </mxCell>
        <mxCell id="1UE9MxpvlfbYN3OQRSSH-22" value="" style="endArrow=none;html=1;rounded=0;exitX=-0.013;exitY=0.033;exitDx=0;exitDy=0;exitPerimeter=0;entryX=0.98;entryY=1.067;entryDx=0;entryDy=0;entryPerimeter=0;" edge="1" parent="1UE9MxpvlfbYN3OQRSSH-17">
          <mxGeometry width="50" height="50" relative="1" as="geometry">
            <mxPoint x="-1.9500000000000455" y="161.3199999999997" as="sourcePoint" />
            <mxPoint x="150" y="160.01" as="targetPoint" />
          </mxGeometry>
        </mxCell>
        <mxCell id="1UE9MxpvlfbYN3OQRSSH-21" value="+hapus()" style="text;strokeColor=none;fillColor=none;align=left;verticalAlign=middle;spacingLeft=4;spacingRight=4;overflow=hidden;points=[[0,0.5],[1,0.5]];portConstraint=eastwest;rotatable=0;whiteSpace=wrap;html=1;" vertex="1" parent="1UE9MxpvlfbYN3OQRSSH-17">
          <mxGeometry y="130" width="150" height="30" as="geometry" />
        </mxCell>
        <mxCell id="1UE9MxpvlfbYN3OQRSSH-26" value="" style="endArrow=none;html=1;rounded=0;entryX=0.987;entryY=0.95;entryDx=0;entryDy=0;entryPerimeter=0;exitX=0;exitY=0.925;exitDx=0;exitDy=0;exitPerimeter=0;" edge="1" parent="1UE9MxpvlfbYN3OQRSSH-17">
          <mxGeometry width="50" height="50" relative="1" as="geometry">
            <mxPoint x="1" y="67" as="sourcePoint" />
            <mxPoint x="149.04999999999995" y="68" as="targetPoint" />
          </mxGeometry>
        </mxCell>
        <mxCell id="1UE9MxpvlfbYN3OQRSSH-27" value="" style="endArrow=classic;html=1;rounded=0;exitX=1.007;exitY=0.133;exitDx=0;exitDy=0;exitPerimeter=0;entryX=-0.027;entryY=0.8;entryDx=0;entryDy=0;entryPerimeter=0;" edge="1" parent="1" source="1UE9MxpvlfbYN3OQRSSH-11" target="i8CUbSy8FzLyyfD0Hjm2-13">
          <mxGeometry width="50" height="50" relative="1" as="geometry">
            <mxPoint x="390" y="-3870" as="sourcePoint" />
            <mxPoint x="440" y="-3920" as="targetPoint" />
          </mxGeometry>
        </mxCell>
        <mxCell id="1UE9MxpvlfbYN3OQRSSH-29" value="" style="endArrow=classic;html=1;rounded=0;exitX=1;exitY=0.5;exitDx=0;exitDy=0;" edge="1" parent="1" source="i8CUbSy8FzLyyfD0Hjm2-12" target="1UE9MxpvlfbYN3OQRSSH-20">
          <mxGeometry width="50" height="50" relative="1" as="geometry">
            <mxPoint x="390" y="-3870" as="sourcePoint" />
            <mxPoint x="440" y="-3920" as="targetPoint" />
          </mxGeometry>
        </mxCell>
        <mxCell id="1UE9MxpvlfbYN3OQRSSH-30" value="" style="endArrow=classic;html=1;rounded=0;" edge="1" parent="1">
          <mxGeometry width="50" height="50" relative="1" as="geometry">
            <mxPoint x="510" y="-3808" as="sourcePoint" />
            <mxPoint x="414" y="-3963" as="targetPoint" />
            <Array as="points">
              <mxPoint x="420" y="-3808" />
              <mxPoint x="520" y="-3808" />
              <mxPoint x="520" y="-3958" />
            </Array>
          </mxGeometry>
        </mxCell>
      </root>
    </mxGraphModel>
  </diagram>
</mxfile>
